<svg width="460" height="114" viewBox="0 0 460 114" fill="none" xmlns="http://www.w3.org/2000/svg">
<path d="M14.3892 80.386L5.26409 69.6307L0.781208 26.6764C5.35823 20.5723 21.2045 8.02013 47.9736 6.6445C81.435 4.92495 121.326 0.982113 159.742 1.50963C198.158 2.03714 238.718 1.67444 252.237 1.70265C265.755 1.73087 404.845 -1.97077 422.555 4.77597C436.723 10.1734 449.648 20.4894 454.34 24.9727C452.906 25.8643 450.882 28.6335 454.251 32.5771C457.621 36.5208 459.353 42.5784 459.798 45.1143C457.884 46.6014 454.05 49.9336 454.034 51.3651C454.013 53.1544 441.201 53.575 447.578 55.825C452.68 57.6251 453.901 62.8466 453.873 65.2324C448.867 67.4586 436.576 71.9959 427.464 72.3348C418.353 72.6736 410.366 74.2375 407.511 74.9772L407.47 78.5561C411.732 79.1614 419.4 80.549 415.977 81.2576C411.697 82.1434 407.454 79.8978 403.881 81.2324C400.308 82.5669 395.297 85.2406 399.555 86.1441C400.857 86.9713 402.135 87.3851 403.284 87.5475C404.698 87.3361 406.227 87.1633 407.371 87.0551C406.637 87.421 405.127 87.808 403.284 87.5475C400.883 87.9064 398.813 88.3762 399.524 88.8281C400.654 89.5462 405.195 90.6293 407.325 91.0811L410.851 93.7725L399.467 93.7488C393.206 93.7357 394.455 96.4224 395.863 97.7673C394.199 98.0621 389.878 98.4706 385.902 97.7466C380.932 96.8415 383.051 98.1879 374.508 98.6175C367.673 98.9611 258.437 101.175 246.817 101.001C247.773 100.407 248.403 99.2152 243.28 99.2045C236.877 99.1911 236.165 99.1896 228.328 100.068C220.492 100.946 165.716 99.9373 141.525 99.8868L106.662 99.8141C95.4975 101.282 69.0435 104.12 52.5408 103.727C31.9124 103.237 14.1767 98.7264 14.1819 98.279C14.186 97.9212 10.42 95.438 8.53651 94.2412C10.4252 94.9907 14.2078 96.0424 14.2285 94.253C14.2493 92.4637 10.5151 87.2369 8.64536 84.8472L14.3892 80.386Z" fill="#8E8E8C" fill-opacity="0.75"/>
<path d="M27.6123 105.912C25.3355 105.907 25.2199 107.696 25.4467 108.591L20.8167 109.029C18.5464 110.516 14.4336 113.4 16.1453 113.045C17.8571 112.691 21.1414 111.714 22.5696 111.269C23.5252 110.675 29.9899 109.496 48.2044 109.534C70.9724 109.581 68.8483 108.682 70.9828 108.686C73.1173 108.691 30.4583 105.918 27.6123 105.912Z" fill="#8E8E8C" fill-opacity="0.75"/>
</svg>
