<svg width="133" height="53" viewBox="0 0 133 53" fill="none" xmlns="http://www.w3.org/2000/svg">
<path d="M4.60172 36.4145L1.53193 31.1362L0.527927 10.4674C2.22156 7.59736 7.97033 1.77837 17.4164 1.46295C29.2239 1.06867 43.3255 -0.30966 56.8479 0.438071C70.3703 1.1858 84.6599 1.53399 89.4206 1.72158C94.1812 1.90917 113.498 2.02584 119.644 5.4912C124.562 8.26348 128.976 13.3799 130.568 15.5916C130.051 16.001 129.301 17.3036 130.435 19.2393C131.569 21.175 132.098 24.104 132.221 25.3266C131.527 26.0155 130.132 27.565 130.107 28.2517C130.076 29.11 125.558 29.1469 127.774 30.3086C129.547 31.238 129.907 33.7593 129.865 34.9037C128.072 35.9075 123.683 37.9264 120.469 37.9717C117.256 38.017 114.422 38.6646 113.407 38.9827L113.344 40.6995C114.837 41.0448 117.519 41.8094 116.304 42.1053C114.785 42.4752 113.321 41.3431 112.045 41.9374C110.769 42.5318 108.968 43.7502 110.455 44.2386C110.903 44.6522 111.348 44.8673 111.75 44.96C112.251 44.8768 112.792 44.8135 113.196 44.7764C112.932 44.9425 112.396 45.1087 111.75 44.96C110.899 45.1013 110.164 45.3 110.409 45.5261C110.797 45.8852 112.382 46.4634 113.126 46.7076L114.332 48.0444L110.323 47.8865C108.118 47.7996 108.522 49.1048 109 49.7683C108.41 49.8883 106.882 50.0287 105.492 49.6301C103.753 49.1318 104.482 49.8052 101.467 49.9013C99.0555 49.9782 90.2729 49.5318 86.1831 49.299C86.5275 49.0261 86.7655 48.4624 84.9615 48.3913C82.7065 48.3025 82.4559 48.2926 79.6841 48.6132C76.9124 48.9337 57.6349 47.7443 49.1159 47.4086L36.8385 46.9248C32.8871 47.4854 23.5324 48.5064 17.7257 48.1057C10.4673 47.6048 4.28145 45.2122 4.28927 44.9976C4.29552 44.8259 3.00242 43.5859 2.3551 42.9874C3.01024 43.3714 4.32832 43.9247 4.35957 43.0664C4.39082 42.2081 3.14564 39.652 2.51914 38.4812L4.60172 36.4145Z" fill="#8E8E8C"/>
<path d="M8.91709 48.833C8.11531 48.8015 8.05065 49.6585 8.11855 50.0909L6.4821 50.2413C5.66262 50.9253 4.17557 52.2563 4.78316 52.1084C5.39075 51.9604 6.56051 51.5337 7.06944 51.3389C7.41394 51.066 9.7065 50.5833 16.1208 50.836C24.1387 51.152 23.4027 50.6932 24.1543 50.7228C24.906 50.7524 9.91933 48.8725 8.91709 48.833Z" fill="#8E8E8C"/>
</svg>
