<svg width="588" height="93" viewBox="0 0 588 93" fill="none" xmlns="http://www.w3.org/2000/svg">
<path d="M20.3058 60.0669L6.83537 50.6721L0.777111 14.8586C7.70439 10.0477 31.5602 0.498594 71.5653 0.789134C121.572 1.15231 181.215 0.0175974 238.588 2.50639C295.962 4.99518 383.465 7.18708 403.657 7.93251C423.849 8.67794 505.723 10.5886 532.076 17.1221C553.158 22.3489 572.31 31.5828 579.252 35.5464C577.097 36.2083 574.032 38.3935 579.007 41.8396C583.982 45.2856 586.479 50.395 587.106 52.519C584.224 53.6483 578.449 56.2032 578.403 57.3878C578.345 58.8686 559.202 58.5326 568.694 60.7367C576.289 62.5 578.034 66.8896 577.957 68.8639C570.446 70.4403 552.02 73.5415 538.405 73.3355C524.791 73.1294 512.837 73.998 508.562 74.4581L508.447 77.4199C514.805 78.1488 526.238 79.7077 521.114 80.1117C514.709 80.6167 508.404 78.5303 503.047 79.4447C497.69 80.3591 490.165 82.3057 496.513 83.2815C498.445 84.036 500.348 84.4471 502.062 84.6429C504.177 84.5434 506.464 84.4819 508.174 84.4534C507.071 84.7172 504.811 84.9571 502.062 84.6429C498.469 84.8118 495.371 85.0904 496.426 85.5027C498.104 86.1577 504.871 87.2973 508.045 87.7852L513.272 90.2026L496.268 89.5748C486.916 89.2296 488.743 91.5214 490.825 92.7104C488.336 92.8657 481.875 92.9732 475.947 92.1612C468.536 91.1461 471.681 92.3744 458.914 92.2738C448.7 92.1933 411.44 90.6448 394.087 89.8806C395.523 89.4393 396.482 88.4861 388.831 88.2036L388.83 88.2036C379.266 87.8505 378.203 87.8113 366.484 88.1201C354.765 88.429 246.051 84.3418 209.918 83.0079L157.843 81.0854C141.146 81.7048 101.59 82.6419 76.9458 81.4355C46.1407 79.9275 19.716 75.2447 19.7304 74.8745C19.7419 74.5784 14.1535 72.3207 11.3579 71.2289C14.1679 71.9505 19.8023 73.0236 19.8598 71.5428C19.9174 70.062 14.4173 65.5338 11.66 63.4548L20.3058 60.0669Z" fill="#898985"/>
<path d="M39.6779 81.9133C36.2771 81.7878 36.0779 83.2633 36.4034 84.0168L29.4812 84.132C26.0679 85.2417 19.8818 87.4107 22.4439 87.2087C25.006 87.0067 29.9262 86.3728 32.0661 86.081C33.5023 85.6398 43.1761 85.0083 70.3823 86.0127C104.39 87.2681 101.231 86.41 104.419 86.5277C107.607 86.6454 43.9289 82.0702 39.6779 81.9133Z" fill="#898985"/>
</svg>
