<svg width="206" height="49" viewBox="0 0 206 49" fill="none" xmlns="http://www.w3.org/2000/svg">
<path d="M7.00515 33.4002L2.3623 28.3794L0.51364 8.91359C2.97435 6.24297 11.3952 0.869291 25.3931 0.739466C42.8904 0.577184 63.7714 -0.470469 83.8308 0.472124C103.89 1.41472 134.496 1.9786 141.557 2.23926C148.617 2.49992 177.255 2.95114 186.428 6.32048C193.766 9.01594 200.399 13.9082 202.798 16.0174C202.039 16.3935 200.95 17.6059 202.665 19.4473C204.379 21.2888 205.215 24.0541 205.418 25.2066C204.401 25.8426 202.36 27.276 202.335 27.9216C202.304 28.7287 195.607 28.6835 198.912 29.8158C201.557 30.7217 202.134 33.1003 202.092 34.1764C199.452 35.0892 192.98 36.9113 188.217 36.8971C183.454 36.8829 179.264 37.4422 177.765 37.7236L177.702 39.3379C179.921 39.6892 183.911 40.456 182.114 40.713C179.869 41.0342 177.679 39.9431 175.797 40.4798C173.915 41.0165 171.267 42.1311 173.481 42.6169C174.151 43.014 174.814 43.2242 175.413 43.3186C176.154 43.2491 176.954 43.1992 177.553 43.1714C177.165 43.323 176.372 43.4699 175.413 43.3186C174.154 43.4365 173.068 43.6105 173.434 43.8275C174.016 44.1723 176.376 44.7443 177.483 44.9873L179.294 46.2665L173.348 46.047C170.078 45.9262 170.699 47.1615 171.419 47.7943C170.547 47.8968 168.285 48.0019 166.216 47.6022C163.631 47.1027 164.722 47.7491 160.255 47.7863C156.681 47.816 143.653 47.2407 137.586 46.9494C138.092 46.6987 138.435 46.1725 135.76 46.0737C132.415 45.9503 132.043 45.9365 127.94 46.1892C123.837 46.4418 85.8222 44.9982 73.1873 44.5318L54.9781 43.8596C49.13 44.3172 35.2799 45.1125 26.6647 44.6328C15.8957 44.0332 6.68371 41.6726 6.69155 41.4708C6.69782 41.3094 4.75925 40.1197 3.78919 39.5451C4.76709 39.918 6.73075 40.4619 6.76211 39.6549C6.79347 38.8478 4.90299 36.4207 3.95383 35.308L7.00515 33.4002Z" fill="#8E8E8C"/>
<path d="M13.619 45.1615C12.4298 45.1176 12.3489 45.9228 12.4571 46.331L10.0337 46.4436C8.83082 47.0727 6.64953 48.2988 7.54768 48.1703C8.44583 48.0418 10.1725 47.661 10.9236 47.4867C11.4295 47.236 14.8197 46.8223 24.3331 47.1735C36.2248 47.6125 35.1256 47.1678 36.2405 47.209C37.3553 47.2501 15.1054 45.2164 13.619 45.1615Z" fill="#8E8E8C"/>
</svg>
