<svg width="232" height="40" viewBox="0 0 232 40" fill="none" xmlns="http://www.w3.org/2000/svg">
<path d="M13.168 39.336C10.704 39.336 8.496 38.936 6.544 38.136C4.592 37.336 3.024 36.152 1.84 34.584C0.688 33.016 0.0800002 31.128 0.0160002 28.92H8.752C8.88 30.168 9.312 31.128 10.048 31.8C10.784 32.44 11.744 32.76 12.928 32.76C14.144 32.76 15.104 32.488 15.808 31.944C16.512 31.368 16.864 30.584 16.864 29.592C16.864 28.76 16.576 28.072 16 27.528C15.456 26.984 14.768 26.536 13.936 26.184C13.136 25.832 11.984 25.432 10.48 24.984C8.304 24.312 6.528 23.64 5.152 22.968C3.776 22.296 2.592 21.304 1.6 19.992C0.608 18.68 0.112 16.968 0.112 14.856C0.112 11.72 1.248 9.272 3.52 7.512C5.792 5.72 8.752 4.824 12.4 4.824C16.112 4.824 19.104 5.72 21.376 7.512C23.648 9.272 24.864 11.736 25.024 14.904H16.144C16.08 13.816 15.68 12.968 14.944 12.36C14.208 11.72 13.264 11.4 12.112 11.4C11.12 11.4 10.32 11.672 9.712 12.216C9.104 12.728 8.8 13.48 8.8 14.472C8.8 15.56 9.312 16.408 10.336 17.016C11.36 17.624 12.96 18.28 15.136 18.984C17.312 19.72 19.072 20.424 20.416 21.096C21.792 21.768 22.976 22.744 23.968 24.024C24.96 25.304 25.456 26.952 25.456 28.968C25.456 30.888 24.96 32.632 23.968 34.2C23.008 35.768 21.6 37.016 19.744 37.944C17.888 38.872 15.696 39.336 13.168 39.336ZM45.4353 32.04V39H41.2593C38.2833 39 35.9633 38.28 34.2993 36.84C32.6353 35.368 31.8033 32.984 31.8033 29.688V19.032H28.5393V12.216H31.8033V5.688H40.0113V12.216H45.3873V19.032H40.0113V29.784C40.0113 30.584 40.2033 31.16 40.5873 31.512C40.9713 31.864 41.6113 32.04 42.5073 32.04H45.4353ZM58.2153 16.68C59.1753 15.208 60.3753 14.056 61.8153 13.224C63.2553 12.36 64.8553 11.928 66.6153 11.928V20.616H64.3593C62.3113 20.616 60.7753 21.064 59.7513 21.96C58.7273 22.824 58.2153 24.36 58.2153 26.568V39H50.0073V12.216H58.2153V16.68ZM95.7865 25.176C95.7865 25.944 95.7385 26.744 95.6425 27.576H77.0665C77.1945 29.24 77.7225 30.52 78.6505 31.416C79.6105 32.28 80.7785 32.712 82.1545 32.712C84.2025 32.712 85.6265 31.848 86.4265 30.12H95.1625C94.7145 31.88 93.8985 33.464 92.7145 34.872C91.5625 36.28 90.1065 37.384 88.3465 38.184C86.5865 38.984 84.6185 39.384 82.4425 39.384C79.8185 39.384 77.4825 38.824 75.4345 37.704C73.3865 36.584 71.7865 34.984 70.6345 32.904C69.4825 30.824 68.9065 28.392 68.9065 25.608C68.9065 22.824 69.4665 20.392 70.5865 18.312C71.7385 16.232 73.3385 14.632 75.3865 13.512C77.4345 12.392 79.7865 11.832 82.4425 11.832C85.0345 11.832 87.3385 12.376 89.3545 13.464C91.3705 14.552 92.9385 16.104 94.0585 18.12C95.2105 20.136 95.7865 22.488 95.7865 25.176ZM87.3865 23.016C87.3865 21.608 86.9065 20.488 85.9465 19.656C84.9865 18.824 83.7865 18.408 82.3465 18.408C80.9705 18.408 79.8025 18.808 78.8425 19.608C77.9145 20.408 77.3385 21.544 77.1145 23.016H87.3865ZM98.4846 25.56C98.4846 22.808 98.9966 20.392 100.021 18.312C101.077 16.232 102.501 14.632 104.293 13.512C106.085 12.392 108.085 11.832 110.293 11.832C112.181 11.832 113.829 12.216 115.237 12.984C116.677 13.752 117.781 14.76 118.549 16.008V12.216H126.757V39H118.549V35.208C117.749 36.456 116.629 37.464 115.189 38.232C113.781 39 112.133 39.384 110.245 39.384C108.069 39.384 106.085 38.824 104.293 37.704C102.501 36.552 101.077 34.936 100.021 32.856C98.9966 30.744 98.4846 28.312 98.4846 25.56ZM118.549 25.608C118.549 23.56 117.973 21.944 116.821 20.76C115.701 19.576 114.325 18.984 112.693 18.984C111.061 18.984 109.669 19.576 108.517 20.76C107.397 21.912 106.837 23.512 106.837 25.56C106.837 27.608 107.397 29.24 108.517 30.456C109.669 31.64 111.061 32.232 112.693 32.232C114.325 32.232 115.701 31.64 116.821 30.456C117.973 29.272 118.549 27.656 118.549 25.608ZM147.623 32.04V39H143.447C140.471 39 138.151 38.28 136.487 36.84C134.823 35.368 133.991 32.984 133.991 29.688V19.032H130.727V12.216H133.991V5.688H142.199V12.216H147.575V19.032H142.199V29.784C142.199 30.584 142.391 31.16 142.775 31.512C143.159 31.864 143.799 32.04 144.695 32.04H147.623ZM160.403 32.664H171.155V39H152.195V5.304H160.403V32.664ZM179.198 9.432C177.758 9.432 176.574 9.016 175.646 8.184C174.75 7.32 174.302 6.264 174.302 5.016C174.302 3.736 174.75 2.68 175.646 1.848C176.574 0.983997 177.758 0.551997 179.198 0.551997C180.606 0.551997 181.758 0.983997 182.654 1.848C183.582 2.68 184.046 3.736 184.046 5.016C184.046 6.264 183.582 7.32 182.654 8.184C181.758 9.016 180.606 9.432 179.198 9.432ZM183.278 12.216V39H175.07V12.216H183.278ZM202.666 19.032H198.25V39H190.042V19.032H187.066V12.216H190.042V11.448C190.042 8.152 190.986 5.656 192.874 3.96C194.762 2.232 197.53 1.368 201.178 1.368C201.786 1.368 202.234 1.384 202.522 1.416V8.376C200.954 8.28 199.85 8.504 199.21 9.048C198.57 9.592 198.25 10.568 198.25 11.976V12.216H202.666V19.032ZM231.771 25.176C231.771 25.944 231.723 26.744 231.627 27.576H213.051C213.179 29.24 213.707 30.52 214.635 31.416C215.595 32.28 216.763 32.712 218.139 32.712C220.187 32.712 221.611 31.848 222.411 30.12H231.147C230.699 31.88 229.883 33.464 228.699 34.872C227.547 36.28 226.091 37.384 224.331 38.184C222.571 38.984 220.603 39.384 218.427 39.384C215.803 39.384 213.467 38.824 211.419 37.704C209.371 36.584 207.771 34.984 206.619 32.904C205.467 30.824 204.891 28.392 204.891 25.608C204.891 22.824 205.451 20.392 206.571 18.312C207.723 16.232 209.323 14.632 211.371 13.512C213.419 12.392 215.771 11.832 218.427 11.832C221.019 11.832 223.323 12.376 225.339 13.464C227.355 14.552 228.923 16.104 230.043 18.12C231.195 20.136 231.771 22.488 231.771 25.176ZM223.371 23.016C223.371 21.608 222.891 20.488 221.931 19.656C220.971 18.824 219.771 18.408 218.331 18.408C216.955 18.408 215.787 18.808 214.827 19.608C213.899 20.408 213.323 21.544 213.099 23.016H223.371Z" fill="#C3C2C2"/>
<path d="M13.168 39.336C10.704 39.336 8.496 38.936 6.544 38.136C4.592 37.336 3.024 36.152 1.84 34.584C0.688 33.016 0.0800002 31.128 0.0160002 28.92H8.752C8.88 30.168 9.312 31.128 10.048 31.8C10.784 32.44 11.744 32.76 12.928 32.76C14.144 32.76 15.104 32.488 15.808 31.944C16.512 31.368 16.864 30.584 16.864 29.592C16.864 28.76 16.576 28.072 16 27.528C15.456 26.984 14.768 26.536 13.936 26.184C13.136 25.832 11.984 25.432 10.48 24.984C8.304 24.312 6.528 23.64 5.152 22.968C3.776 22.296 2.592 21.304 1.6 19.992C0.608 18.68 0.112 16.968 0.112 14.856C0.112 11.72 1.248 9.272 3.52 7.512C5.792 5.72 8.752 4.824 12.4 4.824C16.112 4.824 19.104 5.72 21.376 7.512C23.648 9.272 24.864 11.736 25.024 14.904H16.144C16.08 13.816 15.68 12.968 14.944 12.36C14.208 11.72 13.264 11.4 12.112 11.4C11.12 11.4 10.32 11.672 9.712 12.216C9.104 12.728 8.8 13.48 8.8 14.472C8.8 15.56 9.312 16.408 10.336 17.016C11.36 17.624 12.96 18.28 15.136 18.984C17.312 19.72 19.072 20.424 20.416 21.096C21.792 21.768 22.976 22.744 23.968 24.024C24.96 25.304 25.456 26.952 25.456 28.968C25.456 30.888 24.96 32.632 23.968 34.2C23.008 35.768 21.6 37.016 19.744 37.944C17.888 38.872 15.696 39.336 13.168 39.336ZM45.4353 32.04V39H41.2593C38.2833 39 35.9633 38.28 34.2993 36.84C32.6353 35.368 31.8033 32.984 31.8033 29.688V19.032H28.5393V12.216H31.8033V5.688H40.0113V12.216H45.3873V19.032H40.0113V29.784C40.0113 30.584 40.2033 31.16 40.5873 31.512C40.9713 31.864 41.6113 32.04 42.5073 32.04H45.4353ZM58.2153 16.68C59.1753 15.208 60.3753 14.056 61.8153 13.224C63.2553 12.36 64.8553 11.928 66.6153 11.928V20.616H64.3593C62.3113 20.616 60.7753 21.064 59.7513 21.96C58.7273 22.824 58.2153 24.36 58.2153 26.568V39H50.0073V12.216H58.2153V16.68ZM95.7865 25.176C95.7865 25.944 95.7385 26.744 95.6425 27.576H77.0665C77.1945 29.24 77.7225 30.52 78.6505 31.416C79.6105 32.28 80.7785 32.712 82.1545 32.712C84.2025 32.712 85.6265 31.848 86.4265 30.12H95.1625C94.7145 31.88 93.8985 33.464 92.7145 34.872C91.5625 36.28 90.1065 37.384 88.3465 38.184C86.5865 38.984 84.6185 39.384 82.4425 39.384C79.8185 39.384 77.4825 38.824 75.4345 37.704C73.3865 36.584 71.7865 34.984 70.6345 32.904C69.4825 30.824 68.9065 28.392 68.9065 25.608C68.9065 22.824 69.4665 20.392 70.5865 18.312C71.7385 16.232 73.3385 14.632 75.3865 13.512C77.4345 12.392 79.7865 11.832 82.4425 11.832C85.0345 11.832 87.3385 12.376 89.3545 13.464C91.3705 14.552 92.9385 16.104 94.0585 18.12C95.2105 20.136 95.7865 22.488 95.7865 25.176ZM87.3865 23.016C87.3865 21.608 86.9065 20.488 85.9465 19.656C84.9865 18.824 83.7865 18.408 82.3465 18.408C80.9705 18.408 79.8025 18.808 78.8425 19.608C77.9145 20.408 77.3385 21.544 77.1145 23.016H87.3865ZM98.4846 25.56C98.4846 22.808 98.9966 20.392 100.021 18.312C101.077 16.232 102.501 14.632 104.293 13.512C106.085 12.392 108.085 11.832 110.293 11.832C112.181 11.832 113.829 12.216 115.237 12.984C116.677 13.752 117.781 14.76 118.549 16.008V12.216H126.757V39H118.549V35.208C117.749 36.456 116.629 37.464 115.189 38.232C113.781 39 112.133 39.384 110.245 39.384C108.069 39.384 106.085 38.824 104.293 37.704C102.501 36.552 101.077 34.936 100.021 32.856C98.9966 30.744 98.4846 28.312 98.4846 25.56ZM118.549 25.608C118.549 23.56 117.973 21.944 116.821 20.76C115.701 19.576 114.325 18.984 112.693 18.984C111.061 18.984 109.669 19.576 108.517 20.76C107.397 21.912 106.837 23.512 106.837 25.56C106.837 27.608 107.397 29.24 108.517 30.456C109.669 31.64 111.061 32.232 112.693 32.232C114.325 32.232 115.701 31.64 116.821 30.456C117.973 29.272 118.549 27.656 118.549 25.608ZM147.623 32.04V39H143.447C140.471 39 138.151 38.28 136.487 36.84C134.823 35.368 133.991 32.984 133.991 29.688V19.032H130.727V12.216H133.991V5.688H142.199V12.216H147.575V19.032H142.199V29.784C142.199 30.584 142.391 31.16 142.775 31.512C143.159 31.864 143.799 32.04 144.695 32.04H147.623ZM160.403 32.664H171.155V39H152.195V5.304H160.403V32.664ZM179.198 9.432C177.758 9.432 176.574 9.016 175.646 8.184C174.75 7.32 174.302 6.264 174.302 5.016C174.302 3.736 174.75 2.68 175.646 1.848C176.574 0.983997 177.758 0.551997 179.198 0.551997C180.606 0.551997 181.758 0.983997 182.654 1.848C183.582 2.68 184.046 3.736 184.046 5.016C184.046 6.264 183.582 7.32 182.654 8.184C181.758 9.016 180.606 9.432 179.198 9.432ZM183.278 12.216V39H175.07V12.216H183.278ZM202.666 19.032H198.25V39H190.042V19.032H187.066V12.216H190.042V11.448C190.042 8.152 190.986 5.656 192.874 3.96C194.762 2.232 197.53 1.368 201.178 1.368C201.786 1.368 202.234 1.384 202.522 1.416V8.376C200.954 8.28 199.85 8.504 199.21 9.048C198.57 9.592 198.25 10.568 198.25 11.976V12.216H202.666V19.032ZM231.771 25.176C231.771 25.944 231.723 26.744 231.627 27.576H213.051C213.179 29.24 213.707 30.52 214.635 31.416C215.595 32.28 216.763 32.712 218.139 32.712C220.187 32.712 221.611 31.848 222.411 30.12H231.147C230.699 31.88 229.883 33.464 228.699 34.872C227.547 36.28 226.091 37.384 224.331 38.184C222.571 38.984 220.603 39.384 218.427 39.384C215.803 39.384 213.467 38.824 211.419 37.704C209.371 36.584 207.771 34.984 206.619 32.904C205.467 30.824 204.891 28.392 204.891 25.608C204.891 22.824 205.451 20.392 206.571 18.312C207.723 16.232 209.323 14.632 211.371 13.512C213.419 12.392 215.771 11.832 218.427 11.832C221.019 11.832 223.323 12.376 225.339 13.464C227.355 14.552 228.923 16.104 230.043 18.12C231.195 20.136 231.771 22.488 231.771 25.176ZM223.371 23.016C223.371 21.608 222.891 20.488 221.931 19.656C220.971 18.824 219.771 18.408 218.331 18.408C216.955 18.408 215.787 18.808 214.827 19.608C213.899 20.408 213.323 21.544 213.099 23.016H223.371Z" fill="white"/>
</svg>
