<svg width="45" height="50" viewBox="0 0 45 50" fill="none" xmlns="http://www.w3.org/2000/svg">
<g clip-path="url(#clip0_68_91)">
<path d="M9.43201 0V7.57143L34.272 25L9.43201 42.4286V50L45 25L9.43201 0Z" fill="#8E8E8C"/>
<path d="M0 7.35718V42.5715L25.056 25L0 7.35718Z" fill="#8E8E8C"/>
<path d="M6.49234 29C5.93326 28.9927 5.43754 28.868 5.00518 28.6259C4.57283 28.3838 4.21129 28.0646 3.92057 27.6685C3.62984 27.2724 3.40994 26.8469 3.26085 26.392C3.11922 25.9298 3.0484 25.4787 3.0484 25.0385C3.0484 24.569 3.12667 24.0995 3.28321 23.63C3.43976 23.1605 3.66712 22.735 3.96529 22.3535C4.27092 21.9647 4.63619 21.6566 5.06109 21.4292C5.48599 21.1944 5.96307 21.077 6.49234 21.077C7.06633 21.077 7.56577 21.2017 7.99067 21.4512C8.42303 21.7006 8.78457 22.0234 9.07529 22.4195C9.36601 22.8157 9.58219 23.2448 9.72382 23.707C9.87291 24.1692 9.94746 24.613 9.94746 25.0385C9.94746 25.5154 9.86919 25.9885 9.71264 26.458C9.5561 26.9202 9.32501 27.342 9.01938 27.7235C8.72121 28.105 8.35967 28.4131 7.93477 28.6479C7.50986 28.8753 7.02906 28.9927 6.49234 29ZM4.60265 25.0385C4.6101 25.3466 4.6511 25.6547 4.72564 25.9629C4.80764 26.2636 4.92318 26.5424 5.07227 26.7992C5.22882 27.0559 5.42636 27.265 5.6649 27.4264C5.90344 27.5805 6.17925 27.6575 6.49234 27.6575C6.82779 27.6575 7.11478 27.5731 7.35332 27.4044C7.59186 27.2357 7.78568 27.0193 7.93477 26.7552C8.09131 26.4911 8.20685 26.2086 8.2814 25.9078C8.35594 25.6071 8.39321 25.3173 8.39321 25.0385C8.39321 24.7304 8.35221 24.426 8.27021 24.1252C8.19567 23.8171 8.0764 23.5346 7.9124 23.2779C7.75586 23.0211 7.55832 22.8157 7.31978 22.6616C7.08869 22.5002 6.81288 22.4195 6.49234 22.4195C6.16434 22.4195 5.88108 22.5039 5.64254 22.6726C5.40399 22.8414 5.20645 23.0578 5.04991 23.3219C4.90082 23.586 4.78901 23.8684 4.71446 24.1692C4.63992 24.47 4.60265 24.7597 4.60265 25.0385Z" fill="white"/>
<path d="M15.652 27.5585V28.89H11.157V27.5585H12.7001V22.4746C12.6404 22.5626 12.5398 22.6616 12.3982 22.7717C12.264 22.8744 12.1074 22.9771 11.9285 23.0798C11.7571 23.1751 11.5782 23.2558 11.3918 23.3219C11.2129 23.3879 11.0489 23.4209 10.8998 23.4209V22.0564C11.1011 22.0564 11.3061 22.005 11.5148 21.9023C11.7235 21.7996 11.9173 21.6823 12.0962 21.5502C12.2752 21.4182 12.4168 21.2971 12.5212 21.1871C12.633 21.0697 12.6926 21.0073 12.7001 21H14.2319V27.5585H15.652Z" fill="white"/>
</g>
<defs>
<clipPath id="clip0_68_91">
<rect width="45" height="50" fill="white"/>
</clipPath>
</defs>
</svg>
